<?xml version="1.0" standalone="no"?><!DOCTYPE svg PUBLIC "-//W3C//DTD SVG 1.1//EN" "http://www.w3.org/Graphics/SVG/1.1/DTD/svg11.dtd"><svg t="1696409703517" class="icon" viewBox="0 0 1024 1024" version="1.1" xmlns="http://www.w3.org/2000/svg" p-id="7271" xmlns:xlink="http://www.w3.org/1999/xlink" width="200" height="200"><path d="M692.8 576v3.2L473.92 960c-11.52 19.84-32.64 32-55.68 32h-90.88l126.08-413.12V576h239.36zM692.8 445.12V448h-239.36v-2.88L327.36 32h90.88c23.04 0 44.16 12.16 55.68 32l218.88 381.12z" fill="#ffc300" p-id="7272"></path><path d="M924.16 416h-211.2L501.6 47.936A96.64 96.64 0 0 0 418.24 0h-90.88a32 32 0 0 0-30.624 41.344L411.104 416H237.44L121.76 297.6A32 32 0 0 0 98.88 288H32a32 32 0 0 0-32 32v5.12c0 4.224 0.832 8.384 2.464 12.256l52.832 127.296-37.536 18.688a32 32 0 0 0 0 57.28l37.536 18.688-52.832 127.296A31.776 31.776 0 0 0 0 698.88V704a32 32 0 0 0 32 32h66.88a32 32 0 0 0 22.88-9.6L237.44 608h173.6L296.736 982.656A32.064 32.064 0 0 0 327.36 1024h90.88c34.24 0 66.208-18.368 83.424-48.032L713.184 608h210.976C979.2 608 1024 564.928 1024 512c0-25.824-10.592-50.08-29.536-68.064A101.408 101.408 0 0 0 924.16 416zM370.56 64h47.68c11.712 0 22.176 6.016 27.936 15.936L639.168 416h-161.152L370.56 64z m75.68 879.936c-5.824 10.048-16.32 16.064-28 16.064h-47.68l107.456-352h161.312l-193.088 335.936zM924.16 544H224c-8.608 0-16.864 3.456-22.88 9.6L85.408 672h-7.584l48.032-115.744a32 32 0 0 0-15.296-40.928L103.84 512l6.72-3.328a32 32 0 0 0 15.296-40.96L77.824 352h7.584l115.712 118.4c6.016 6.144 14.272 9.6 22.88 9.6h700.16c9.92 0 19.264 3.584 25.984 10.08A30.176 30.176 0 0 1 960 512c0 17.632-16.064 32-35.84 32z" fill="#ffc300" p-id="7273"></path></svg>