<?xml version="1.0" standalone="no"?><!DOCTYPE svg PUBLIC "-//W3C//DTD SVG 1.1//EN" "http://www.w3.org/Graphics/SVG/1.1/DTD/svg11.dtd"><svg t="1696411455577" class="icon" viewBox="0 0 1024 1024" version="1.1" xmlns="http://www.w3.org/2000/svg" p-id="8395" xmlns:xlink="http://www.w3.org/1999/xlink" width="200" height="200"><path d="M864.035 368.444V208.427c0-17.673-14.327-32-32-32h-640.07c-17.673 0-32 14.327-32 32v160.017c0 16.023 11.776 29.295 27.146 31.634-15.37 2.339-27.146 15.611-27.146 31.634v160.017c0 16.92 13.135 30.765 29.764 31.914-16.629 1.149-29.764 14.993-29.764 31.914v160.018c0 17.673 14.327 32 32 32h640.07c17.673 0 32-14.327 32-32v-160.02c0-16.92-13.136-30.765-29.764-31.914 16.629-1.149 29.764-14.993 29.764-31.914V431.711c0-16.023-11.777-29.295-27.146-31.634 15.369-2.338 27.146-15.611 27.146-31.633z m-640.07-128.017h576.07v96.017h-576.07v-96.017z m576.07 543.146h-576.07v-96.018h576.07v96.018z m0-223.845h-576.07v-96.017h576.07v96.017z" fill="#ffd60a" p-id="8396"></path></svg>