<?xml version="1.0" standalone="no"?><!DOCTYPE svg PUBLIC "-//W3C//DTD SVG 1.1//EN" "http://www.w3.org/Graphics/SVG/1.1/DTD/svg11.dtd"><svg t="1694229511276" class="icon" viewBox="0 0 1024 1024" version="1.1" xmlns="http://www.w3.org/2000/svg" p-id="7043" xmlns:xlink="http://www.w3.org/1999/xlink" width="200" height="200"><path d="M720 447l-48 0 0 256c0 35.347-28.656 64-64 64L384 767c-35.347 0-64-28.653-64-64L320 447l-48 0c-8.838 0-16-7.162-16-16l0-32c0-8.835 7.162-16 16-16l112 0 0-64c0-35.347 28.653-64 64-64l96 0c35.347 0 64 28.653 64 64l0 64 112 0c8.835 0 16 7.165 16 16l0 32C736 439.838 728.835 447 720 447zM416 447l-32 0 0 256 32 0L416 447zM480 703l32 0L512 447l-32 0L480 703zM544 335c0-8.838-7.162-16-16-16l-64 0c-8.838 0-16 7.162-16 16l0 48 96 0L544 335zM608 447l-32 0 0 256 32 0L608 447z" p-id="7044" fill="#ffc300"></path></svg>